<?xml version="1.0" standalone="no"?>
<!DOCTYPE svg PUBLIC "-//W3C//DTD SVG 20010904//EN"
 "http://www.w3.org/TR/2001/REC-SVG-20010904/DTD/svg10.dtd">
<svg version="1.0" xmlns="http://www.w3.org/2000/svg"
 width="1080.000000pt" height="1081.000000pt" viewBox="0 0 1080.000000 1081.000000"
 preserveAspectRatio="xMidYMid meet">

<g transform="translate(0.000000,1081.000000) scale(0.100000,-0.100000)"
fill="#000000" stroke="none">
<path d="M0 5405 l0 -5405 5400 0 5400 0 0 5405 0 5405 -5400 0 -5400 0 0
-5405z m5687 3259 c-3 -3 -12 -4 -19 -1 -8 3 -5 6 6 6 11 1 17 -2 13 -5z m218
-36 c5 -5 -5 -6 -25 -2 -19 4 -39 11 -45 16 -5 5 5 6 25 2 19 -4 39 -11 45
-16z m184 -39 c45 -16 38 -28 -9 -16 -22 6 -40 15 -40 19 0 11 11 10 49 -3z
m-381 -46 c-32 -2 -86 -2 -120 0 -35 2 -9 3 57 3 66 0 94 -1 63 -3z m593 -29
c17 -8 28 -18 26 -21 -7 -7 -75 16 -82 28 -9 14 23 11 56 -7z m-156 -64 c12
-5 -109 -8 -300 -7 -254 1 -285 2 -152 7 296 9 431 9 452 0z m-1780 -10 c-3
-5 -12 -10 -18 -10 -7 0 -6 4 3 10 19 12 23 12 15 0z m468 3 c-35 -2 -91 -2
-125 0 -35 2 -7 3 62 3 69 0 97 -1 63 -3z m1685 -41 c3 -9 -9 -7 -37 8 -23 11
-39 25 -36 31 8 12 66 -20 73 -39z m-2288 -36 c0 -4 -68 -46 -76 -46 -13 0 0
18 24 32 25 16 52 23 52 14z m875 -17 c-59 -11 -685 -8 -678 4 2 4 167 6 366
6 251 -1 347 -4 312 -10z m1280 1 c7 -11 -388 -12 -705 0 -161 5 -117 7 252 8
289 1 449 -2 453 -8z m293 -30 c27 -17 43 -40 27 -40 -10 0 -75 45 -75 53 0
12 13 8 48 -13z m-1345 -47 c-18 -2 -48 -2 -65 0 -18 2 -4 4 32 4 36 0 50 -2
33 -4z m752 -10 l480 -8 -370 -5 c-203 -3 -363 -8 -355 -11 8 -3 67 -21 130
-38 l115 -33 307 2 c203 0 308 -3 313 -10 4 -7 -85 -10 -282 -11 l-288 0 84
-40 84 -39 263 0 c170 0 265 -4 269 -10 5 -7 -72 -10 -239 -8 -135 2 -246 0
-246 -3 0 -3 28 -22 61 -42 l62 -37 236 -2 236 -2 -225 -6 -224 -5 52 -37 52
-38 214 0 c133 0 217 -4 221 -10 4 -7 -65 -10 -201 -10 l-207 0 44 -40 44 -39
203 -1 c111 0 202 -3 202 -7 0 -5 -82 -8 -183 -8 -100 0 -185 -1 -189 -3 -4
-1 12 -20 36 -42 l43 -40 189 -2 189 -3 -182 -2 c-101 -2 -183 -7 -183 -11 0
-5 15 -23 34 -41 l34 -33 181 2 c119 0 181 -3 181 -10 0 -6 -61 -10 -176 -10
l-176 0 32 -40 32 -40 174 0 c114 0 174 -4 174 -10 0 -7 -55 -10 -165 -8 -91
2 -165 1 -165 -2 0 -3 11 -22 25 -43 l26 -37 172 -2 172 -2 -168 -3 -168 -3
22 -40 23 -40 162 0 c98 0 165 -4 169 -10 4 -7 -50 -10 -154 -10 -89 0 -161
-2 -161 -5 0 -2 8 -20 17 -40 l17 -35 165 -2 166 -2 -157 -3 c-90 -2 -158 -8
-158 -13 0 -5 8 -25 17 -45 l17 -35 160 -2 161 -2 -158 -3 c-146 -3 -158 -5
-152 -21 4 -9 12 -30 17 -45 l11 -29 76 6 c42 3 112 2 156 -3 75 -8 71 -8 -74
-10 -136 -1 -152 -3 -147 -17 3 -9 9 -27 12 -40 6 -24 7 -24 158 -26 l151 -2
-147 -3 c-82 -2 -148 -6 -148 -10 0 -3 5 -23 12 -44 l11 -39 151 -2 151 -2
-147 -3 c-82 -2 -148 -7 -148 -12 0 -5 3 -23 6 -40 l7 -31 101 -1 c178 -1 222
-16 52 -18 l-148 -1 6 -22 c3 -13 6 -31 6 -40 0 -16 14 -18 145 -18 80 0 145
-3 145 -7 0 -5 -21 -8 -47 -8 -27 0 -90 -2 -141 -3 l-93 -2 3 -37 3 -38 150
-5 150 -6 -147 -2 -148 -2 0 -40 0 -40 145 0 c90 0 145 -4 145 -10 0 -6 -55
-10 -145 -10 -158 0 -154 1 -139 -57 6 -22 10 -23 145 -23 77 0 139 -3 139 -7
0 -5 -64 -8 -142 -8 l-143 0 -3 -42 -3 -43 148 -2 148 -2 -147 -3 -148 -4 0
-39 0 -40 140 0 c87 0 140 -4 140 -10 0 -6 -55 -10 -145 -10 l-145 0 0 -40 0
-40 147 0 c80 0 144 -3 140 -6 -3 -3 -69 -5 -145 -5 -77 1 -142 -2 -145 -6 -3
-5 -8 -25 -12 -46 l-7 -37 148 -2 149 -2 -150 -6 c-149 -5 -149 -5 -156 -30
-14 -51 -18 -50 136 -50 90 0 145 -4 145 -10 0 -6 -56 -10 -149 -10 l-149 0
-6 -24 c-3 -13 -9 -31 -12 -40 -5 -14 11 -16 147 -16 84 0 150 -3 146 -6 -3
-3 -71 -5 -151 -5 -162 2 -147 8 -170 -66 -7 -22 -7 -22 146 -26 l153 -3 -156
-2 -156 -2 -16 -40 -15 -40 154 0 c96 0 154 -4 154 -10 0 -6 -59 -10 -158 -10
l-158 0 -17 -35 c-9 -20 -17 -38 -17 -40 0 -3 71 -5 157 -5 86 0 154 -3 150
-6 -3 -3 -75 -5 -161 -5 l-155 2 -21 -40 c-11 -22 -20 -43 -20 -45 0 -3 73 -7
163 -9 l162 -3 -172 -2 c-95 -1 -173 -6 -173 -10 0 -5 -25 -45 -55 -90 l-55
-82 173 -3 172 -3 -177 -2 -176 -2 -31 -39 c-17 -21 -31 -42 -31 -45 0 -3 80
-7 178 -9 l177 -2 -186 -3 -186 -2 -31 -39 c-18 -22 -32 -42 -32 -44 0 -2 81
-3 180 -3 99 1 180 -2 180 -6 0 -5 -87 -8 -193 -8 l-193 0 -39 -40 -39 -40
200 -3 199 -2 -204 -3 -203 -2 -51 -42 -51 -43 210 -5 209 -6 -218 -2 -219 -2
-55 -40 -56 -40 221 0 c141 0 222 -4 222 -10 0 -6 -85 -10 -235 -10 l-236 0
-65 -37 -65 -38 253 -5 c314 -7 302 -11 -27 -10 l-251 1 -89 -43 -90 -43 290
-5 290 -5 -314 -3 -314 -2 -93 -30 c-51 -16 -111 -33 -134 -36 -104 -17 -10
-21 332 -16 294 4 369 2 363 -7 -6 -10 -102 -12 -434 -10 -234 1 -460 -1 -501
-4 l-75 -6 65 10 c484 72 854 254 1179 580 389 391 593 941 552 1490 -30 403
-153 731 -392 1049 -332 440 -864 727 -1426 769 -114 9 -115 9 -18 5 55 -2
316 -7 580 -11z m-895 0 c-14 -2 -83 -15 -155 -29 -543 -107 -987 -412 -1289
-886 -37 -60 -70 -108 -72 -108 -3 0 0 9 6 20 11 20 8 20 -156 20 -92 0 -164
3 -160 8 4 4 78 5 165 3 l157 -3 27 41 c15 22 27 43 27 46 0 2 -75 6 -167 8
l-168 3 172 2 172 2 26 37 c14 21 25 40 25 43 0 3 -74 4 -165 2 -110 -2 -165
1 -165 8 0 6 60 10 174 10 l174 0 32 40 32 40 -177 0 c-119 0 -174 3 -170 10
4 7 70 10 182 10 l175 -2 34 33 c19 18 34 36 34 41 0 4 -82 9 -182 11 l-183 2
191 3 191 2 42 38 c22 20 41 41 41 45 0 3 -87 8 -192 10 l-193 2 205 3 205 3
45 39 45 39 -209 1 c-115 0 -207 3 -204 6 4 3 101 5 217 4 l211 -1 47 36 c25
19 50 35 54 35 5 0 9 4 9 10 0 6 -86 11 -222 13 l-223 2 236 3 236 2 66 38
c37 20 67 41 67 45 0 4 -110 6 -245 5 -135 -2 -245 0 -245 5 0 4 119 7 264 7
l264 0 83 39 84 39 -289 1 c-159 1 -287 3 -284 6 2 3 146 7 319 9 305 5 317 6
394 31 43 14 96 28 117 31 105 17 18 24 -319 26 l-368 3 440 5 c242 3 463 6
490 6 28 1 39 -1 25 -3z m-1150 -16 c0 -15 -58 -52 -67 -43 -4 3 -4 7 -2 9 2
2 17 13 33 25 33 26 36 26 36 9z m2844 -88 c-3 -5 -21 3 -40 17 -18 14 -31 30
-28 35 3 5 21 -3 40 -17 18 -14 31 -30 28 -35z m-1112 -49 c153 -31 296 -82
453 -160 183 -91 302 -177 456 -330 136 -135 218 -238 297 -377 42 -72 122
-243 122 -259 0 -2 -8 -4 -17 -4 -12 0 -14 3 -6 8 8 5 2 28 -22 80 -19 39 -38
72 -42 72 -5 0 -20 -7 -33 -16 -18 -11 -17 -8 5 10 23 20 27 28 18 37 -10 10
-21 8 -53 -6 -44 -20 -48 -28 -22 -47 9 -7 38 -43 62 -79 25 -37 50 -65 55
-64 6 1 7 0 3 -2 -3 -2 18 -50 46 -106 29 -57 58 -116 65 -132 l11 -30 -6 30
c-3 17 -8 41 -10 55 -3 14 -16 58 -30 99 -13 41 -22 76 -20 79 10 9 78 -229
96 -335 64 -371 10 -763 -151 -1100 -60 -126 -183 -311 -281 -423 -217 -248
-513 -438 -830 -534 -123 -37 -303 -70 -340 -63 -21 4 -20 4 5 6 18 1 27 6 27
19 1 15 2 15 10 1 15 -26 82 -11 91 21 7 24 7 24 8 3 1 -13 4 -23 9 -23 15 0
82 21 82 26 0 2 -17 37 -37 77 l-38 72 -6 -65 -6 -65 -1 83 c-2 61 -7 93 -23
123 -11 23 -18 43 -16 45 2 3 10 -9 17 -26 7 -16 16 -30 21 -30 5 0 9 -7 9
-15 0 -9 20 -56 45 -105 46 -91 57 -100 99 -84 14 5 15 22 9 132 -6 119 -8
130 -38 177 -57 91 -77 125 -72 125 3 0 25 -32 48 -70 24 -39 48 -69 54 -66 5
2 11 -6 11 -18 2 -23 129 -226 142 -226 29 1 30 18 11 140 -20 135 -21 146
-14 139 2 -3 13 -60 24 -128 11 -68 22 -125 25 -128 3 -3 32 8 65 23 l60 29
-80 105 c-45 58 -84 107 -88 110 -15 11 -41 60 -32 60 6 0 16 -10 23 -23 15
-27 190 -248 193 -245 2 2 -15 71 -36 153 -21 83 -37 154 -36 159 2 6 21 -57
42 -140 21 -82 41 -152 44 -156 11 -12 131 66 131 85 0 14 -138 174 -213 247
-9 8 -26 27 -39 41 -13 15 -50 55 -83 90 l-60 64 67 -64 67 -64 77 13 c134 21
145 2 -132 241 -136 118 -255 219 -264 226 -8 7 -12 13 -8 13 4 0 101 -80 215
-178 115 -97 234 -199 266 -226 l58 -49 55 17 c30 9 73 25 95 35 l41 19 -331
231 c-182 128 -331 235 -331 238 0 3 6 1 13 -4 74 -57 658 -453 668 -453 16 0
169 91 169 100 0 4 -12 12 -27 19 -47 21 -727 403 -738 414 -12 12 37 -15 459
-247 176 -97 322 -176 325 -176 3 0 39 31 80 68 l74 68 -401 174 c-221 95
-401 175 -399 177 2 2 185 -73 406 -167 221 -94 405 -169 410 -166 14 9 124
156 120 160 -2 2 -210 68 -461 147 -252 78 -455 145 -453 147 2 2 208 -59 459
-137 250 -78 458 -141 463 -141 10 0 93 155 93 174 0 8 -55 24 -157 45 -87 18
-293 60 -457 94 -165 33 -295 62 -290 64 6 2 212 -37 460 -87 402 -81 450 -89
461 -75 15 21 56 175 49 183 -6 5 -900 100 -971 102 -16 1 -24 4 -17 7 7 3
234 -16 503 -43 269 -26 491 -45 494 -42 3 3 8 48 12 102 l6 96 -606 0 -606 0
-5 -47 c-35 -290 -89 -443 -223 -636 l-55 -79 29 -31 28 -32 -32 29 -33 30
-34 -40 c-46 -53 -123 -116 -130 -106 -3 5 27 41 67 81 l72 71 -278 0 c-152 0
-277 -4 -277 -9 0 -5 7 -14 15 -21 16 -14 20 -40 6 -40 -5 0 -21 13 -34 30
l-25 30 -63 -63 -62 -62 57 64 c31 36 56 67 56 70 0 3 -13 22 -29 41 l-29 34
-83 -71 c-46 -39 -120 -102 -164 -139 -44 -38 -74 -61 -67 -52 8 10 81 74 163
144 l149 127 -21 31 c-80 122 -147 295 -173 447 -9 51 -16 106 -16 123 0 17
-3 41 -6 54 l-6 22 -606 0 -605 0 6 -97 c4 -53 10 -100 14 -104 5 -4 114 4
243 17 129 13 249 23 265 22 17 -2 -89 -15 -234 -30 -145 -15 -266 -29 -268
-32 -7 -7 37 -163 52 -182 12 -17 31 -14 324 45 172 35 314 61 316 59 2 -2
-134 -32 -303 -67 -169 -35 -310 -67 -315 -71 -9 -8 13 -62 54 -135 l29 -52
333 103 c182 57 336 102 340 101 5 -1 -139 -49 -320 -106 -180 -57 -331 -107
-335 -110 -9 -8 109 -161 123 -161 5 0 168 67 361 150 194 82 353 148 355 146
2 -2 -157 -72 -352 -157 l-356 -154 72 -69 c74 -71 75 -78 4 -20 l-40 33 -43
-36 c-23 -19 -42 -39 -42 -44 0 -5 12 -27 26 -49 l27 -40 66 36 c65 35 65 35
31 6 -19 -17 -37 -29 -40 -27 -3 2 -17 -5 -30 -16 -18 -13 -20 -19 -10 -19 9
0 22 6 30 13 8 6 7 2 -3 -9 -17 -21 -17 -23 24 -75 23 -30 49 -61 58 -70 9 -8
45 -47 81 -85 l65 -69 -73 70 c-320 305 -503 699 -543 1165 -17 208 10 469 54
513 18 18 20 18 13 2 -12 -33 -39 -146 -35 -150 4 -3 249 -30 723 -77 121 -12
214 -24 207 -26 -11 -4 -325 25 -741 68 -102 10 -188 15 -193 11 -4 -4 -10
-51 -14 -104 l-6 -97 606 0 607 0 1 33 c1 17 3 46 4 62 2 17 6 53 9 81 3 28
13 73 22 100 17 51 31 75 22 37 -7 -28 11 -35 36 -14 15 13 13 5 -8 -37 -41
-80 -80 -242 -58 -242 4 0 66 46 137 101 72 56 139 106 150 111 20 11 20 11 0
-11 -10 -12 -50 -46 -87 -74 l-68 -52 0 -105 0 -105 140 -109 c171 -133 179
-140 160 -130 -8 4 -109 79 -223 166 -114 87 -211 158 -214 158 -10 0 7 -103
28 -167 36 -109 133 -236 231 -300 50 -34 48 -39 -3 -11 -23 13 -60 42 -82 66
-31 33 -47 42 -73 42 -39 0 -38 3 -19 -44 15 -34 18 -36 68 -38 l52 -2 -47 -3
c-27 -2 -48 -6 -48 -9 0 -3 9 -23 20 -44 l20 -40 73 -2 72 -2 -68 -5 -67 -6
25 -37 c23 -34 30 -38 67 -38 44 0 43 -15 0 -22 l-24 -3 29 -37 28 -37 295 -1
295 0 28 34 c29 37 35 58 15 51 -7 -2 -38 0 -68 4 l-55 9 77 1 77 1 25 37 c14
20 24 38 23 39 -2 2 -62 4 -135 5 -72 0 -130 4 -127 9 2 4 -16 22 -40 39 -25
18 -45 35 -45 38 0 2 23 -12 51 -32 l50 -36 77 38 c138 68 254 198 301 340 22
65 39 173 27 173 -4 0 -37 -24 -74 -53 -65 -51 -391 -299 -422 -321 -50 -34
36 38 185 156 l170 134 -3 100 -4 99 -156 123 c-147 115 -231 185 -207 171 5
-3 119 -89 253 -190 134 -101 248 -186 254 -188 16 -5 0 92 -28 174 -45 132
-150 256 -275 325 -30 16 -50 30 -45 30 5 0 37 -15 70 -33 56 -31 66 -33 124
-28 l63 6 -28 55 c-16 30 -37 68 -48 84 -13 20 -15 28 -6 25 20 -7 95 -150
132 -251 17 -49 37 -88 43 -88 7 0 7 -3 -1 -8 -9 -6 -9 -18 -1 -50 8 -32 15
-42 32 -43 21 0 21 0 -1 -9 -13 -5 -21 -15 -18 -22 6 -16 13 -92 14 -140 l1
-38 607 0 606 0 -6 97 c-4 53 -10 100 -15 105 -5 5 -215 -12 -468 -37 -252
-25 -470 -44 -484 -43 -14 2 191 25 455 52 264 27 483 52 488 56 8 7 -38 179
-52 193 -4 4 -113 -15 -242 -42 -396 -83 -751 -153 -755 -148 -2 2 53 16 123
30 488 99 867 178 870 180 1 2 -18 45 -44 96 -44 86 -49 92 -73 87 -14 -3 -36
-8 -50 -11 -14 -3 -6 2 18 11 23 8 42 19 42 23 0 4 -28 41 -62 82 -33 41 -62
75 -63 77 -1 1 -165 -67 -364 -153 -200 -85 -366 -155 -369 -155 -15 1 56 33
373 170 182 78 333 146 338 149 9 9 -140 137 -155 133 -5 -1 -134 -72 -286
-156 -317 -175 -331 -182 -317 -168 7 8 390 225 578 329 17 9 13 13 -30 40
-26 17 -66 41 -88 53 l-41 23 -164 -115 c-219 -152 -290 -200 -290 -194 0 3
97 73 215 156 118 84 215 155 215 159 0 4 -41 22 -91 39 l-91 32 -141 -122
c-232 -199 -261 -224 -253 -210 4 7 88 82 187 168 98 85 179 159 179 163 0 9
-113 31 -158 31 -26 0 -48 -19 -149 -122 -284 -293 -295 -300 -35 -22 73 78
132 144 132 148 0 9 -173 7 -185 -2 -6 -4 -51 -58 -99 -119 -48 -62 -90 -113
-93 -113 -2 0 35 51 82 112 47 62 81 114 75 116 -16 6 -175 -28 -178 -38 -2
-5 -9 -7 -16 -4 -8 3 -49 -9 -93 -26 l-80 -30 3 -52 c2 -50 4 -52 71 -107 65
-53 168 -169 208 -236 17 -28 16 -28 -16 6 -19 20 -58 64 -87 97 l-53 62 -122
2 -122 2 108 3 c60 2 107 8 105 12 -5 15 -89 81 -103 81 -7 0 -18 -7 -25 -15
-7 -8 -18 -15 -24 -15 -6 0 -3 5 7 11 23 13 47 62 47 95 0 16 -12 38 -34 60
-19 19 -30 34 -25 34 5 0 18 -9 30 -21 13 -13 25 -17 32 -12 15 11 168 69 207
78 3 1 40 8 84 15 62 11 80 19 86 35 7 17 9 17 9 3 1 -10 4 -18 9 -18 4 1 36
41 72 91 36 50 72 98 81 107 9 9 48 59 87 110 64 83 81 112 68 112 -2 0 -29
11 -60 25 -41 18 -58 22 -61 13 -2 -7 -11 -67 -21 -133 -10 -66 -19 -115 -21
-109 -2 6 5 66 15 133 19 120 19 122 0 132 -11 6 -21 9 -22 7 -44 -65 -136
-218 -136 -226 0 -6 -4 -12 -9 -14 -4 -1 -34 -45 -66 -96 -32 -51 -60 -90 -63
-87 -3 2 1 13 10 22 24 30 128 199 128 211 0 6 4 12 8 14 9 3 112 168 112 179
0 6 -83 39 -97 39 -2 0 -4 -10 -4 -22 l-2 -23 -4 23 c-4 20 -37 42 -64 42 -11
0 -99 -173 -99 -195 0 -8 -4 -15 -9 -15 -14 0 -1 35 47 129 24 45 42 85 40 87
-2 2 -22 6 -45 10 l-42 6 -4 -38 -4 -39 -1 43 c-1 28 -7 42 -16 42 -7 0 -27 3
-44 6 -27 6 -31 3 -42 -31 -7 -20 -14 -34 -16 -32 -3 2 0 17 6 32 6 15 8 30 5
34 -4 3 -32 9 -63 13 -45 5 -40 6 25 3 44 -2 128 -14 185 -25z m-1902 1 c0
-10 -53 -51 -66 -51 -4 0 5 14 21 30 29 30 45 38 45 21z m1227 3 c-3 -3 -12
-4 -19 -1 -8 3 -5 6 6 6 11 1 17 -2 13 -5z m-79 -16 c-51 -11 -54 -16 -37 -51
10 -21 9 -21 -5 -3 -8 10 -17 23 -19 29 -2 7 -13 7 -32 0 -26 -8 -31 -16 -36
-54 l-6 -44 -1 43 c-2 48 -3 48 -79 16 l-32 -13 55 -88 c30 -48 58 -90 62 -93
13 -9 32 -60 23 -60 -5 0 -12 8 -16 18 -3 9 -35 63 -71 119 -53 83 -68 100
-84 96 -18 -5 -20 -12 -15 -57 l4 -51 -9 44 c-5 24 -11 45 -12 46 -2 2 -31
-10 -66 -26 l-64 -28 77 -98 c42 -54 108 -141 148 -192 40 -52 77 -101 82
-108 6 -7 51 -20 100 -29 50 -9 95 -17 100 -18 19 -3 35 -17 35 -29 0 -9 -3
-8 -8 1 -9 13 -178 49 -188 39 -3 -3 32 -54 78 -114 79 -102 115 -152 91 -128
-6 6 -54 65 -107 133 l-96 122 -96 0 -96 0 70 -77 c39 -43 89 -96 112 -118 23
-22 51 -53 62 -70 12 -16 -44 36 -123 116 l-144 147 -93 -15 c-51 -8 -92 -19
-90 -23 2 -5 74 -69 161 -144 86 -75 157 -139 157 -143 0 -3 -8 1 -17 9 -10 9
-87 75 -171 146 l-154 130 -67 -23 c-38 -12 -80 -29 -95 -37 l-26 -14 140 -97
c77 -54 140 -100 140 -104 0 -3 -9 1 -20 8 -11 8 -78 54 -150 103 l-130 88
-47 -28 c-119 -68 -125 -74 -111 -91 12 -14 11 -15 -8 -5 -19 10 -30 4 -98
-54 -42 -36 -76 -69 -76 -73 0 -4 25 -18 56 -30 30 -13 53 -25 51 -28 -3 -2
-29 7 -60 21 l-55 24 -29 -31 c-63 -68 -106 -128 -97 -136 5 -5 58 -24 118
-42 60 -18 105 -34 99 -36 -5 -2 -58 12 -118 31 -67 22 -113 32 -119 26 -5 -5
-22 -31 -37 -57 -37 -62 -38 -49 -1 17 23 43 25 52 12 61 -12 8 -11 9 5 5 16
-4 29 8 62 57 l43 62 -28 22 c-15 13 -30 23 -34 23 -4 0 -19 -21 -32 -47 -14
-27 -25 -44 -26 -39 0 16 102 211 149 281 195 295 501 544 838 681 112 45 279
93 323 92 14 0 4 -5 -22 -10z m539 -20 c-3 -7 -5 -2 -5 12 0 14 2 19 5 13 2
-7 2 -19 0 -25z m1468 -28 c16 -16 25 -33 22 -37 -8 -7 -67 45 -67 59 0 16 17
8 45 -22z m-1458 -32 c-3 -8 -6 -5 -6 6 -1 11 2 17 5 13 3 -3 4 -12 1 -19z
m-548 -48 c11 -24 11 -24 -3 -6 -9 11 -16 24 -16 30 0 12 5 7 19 -24z m888
-87 c-2 -21 -4 -4 -4 37 0 41 2 58 4 38 2 -21 2 -55 0 -75z m-317 93 c0 -3 -4
-8 -10 -11 -5 -3 -10 -1 -10 4 0 6 5 11 10 11 6 0 10 -2 10 -4z m-1880 -14 c0
-5 -13 -21 -30 -37 -34 -33 -40 -21 -9 19 20 25 39 34 39 18z m1867 -34 c-3
-8 -6 -5 -6 6 -1 11 2 17 5 13 3 -3 4 -12 1 -19z m-529 -13 c-3 -3 -9 2 -12
12 -6 14 -5 15 5 6 7 -7 10 -15 7 -18z m-151 -47 c-2 -13 -4 -5 -4 17 -1 22 1
32 4 23 2 -10 2 -28 0 -40z m2278 25 c13 -16 25 -31 25 -35 0 -18 -19 -6 -44
27 -32 41 -16 47 19 8z m-2438 -30 c-3 -10 -5 -4 -5 12 0 17 2 24 5 18 2 -7 2
-21 0 -30z m327 22 c3 -8 1 -15 -4 -15 -6 0 -10 7 -10 15 0 8 2 15 4 15 2 0 6
-7 10 -15z m55 -120 c0 -5 -11 10 -24 35 -13 25 -24 50 -24 55 0 6 11 -10 24
-35 13 -25 24 -49 24 -55z m-372 28 c-3 -10 -5 -4 -5 12 0 17 2 24 5 18 2 -7
2 -21 0 -30z m-1177 10 c-1 -15 -49 -67 -55 -61 -8 7 35 68 47 68 4 0 8 -3 8
-7z m1187 -55 c-3 -8 -6 -5 -6 6 -1 11 2 17 5 13 3 -3 4 -12 1 -19z m204 -33
l10 -20 -16 20 c-9 11 -21 29 -26 40 l-10 20 16 -20 c9 -11 21 -29 26 -40z
m2368 -25 c0 -9 -11 -1 -29 19 -16 19 -27 39 -23 44 7 12 52 -43 52 -63z
m-1432 -22 c-2 -18 -4 -6 -4 27 0 33 2 48 4 33 2 -15 2 -42 0 -60z m-907 2 c6
-11 8 -20 6 -20 -3 0 -10 9 -16 20 -6 11 -8 20 -6 20 3 0 10 -9 16 -20z m621
-53 c-10 -9 -11 -8 -5 6 3 10 9 15 12 12 3 -3 0 -11 -7 -18z m-2171 7 c0 -11
-41 -64 -50 -64 -5 0 0 16 11 35 18 31 39 46 39 29z m1600 -24 c0 -5 -2 -10
-4 -10 -3 0 -8 5 -11 10 -3 6 -1 10 4 10 6 0 11 -4 11 -10z m720 -30 c0 -5 -5
-10 -11 -10 -5 0 -7 5 -4 10 3 6 8 10 11 10 2 0 4 -4 4 -10z m1670 -22 c21
-35 25 -48 12 -48 -9 0 -42 54 -42 69 0 19 10 12 30 -21z m-1700 -18 c-6 -11
-13 -20 -16 -20 -2 0 0 9 6 20 6 11 13 20 16 20 2 0 0 -9 -6 -20z m-313 -76
c-3 -3 -12 -4 -19 -1 -8 3 -5 6 6 6 11 1 17 -2 13 -5z m-2108 -56 c-11 -22
-23 -37 -26 -34 -9 9 28 86 38 80 5 -3 0 -23 -12 -46z m2061 48 c0 -2 -7 -7
-16 -10 -8 -3 -12 -2 -9 4 6 10 25 14 25 6z m2177 -139 c-2 -7 -13 7 -25 29
-12 23 -18 45 -14 48 8 9 44 -62 39 -77z m-2250 26 c-3 -10 -5 -4 -5 12 0 17
2 24 5 18 2 -7 2 -21 0 -30z m133 12 c0 -8 -3 -16 -7 -18 -5 -3 -8 5 -8 18 0
13 3 21 8 18 4 -2 7 -10 7 -18z m280 -79 c0 -2 -8 -10 -17 -17 -16 -13 -17
-12 -4 4 13 16 21 21 21 13z m-2491 -60 c-7 -20 -16 -36 -21 -36 -4 0 -5 6 -3
13 19 55 26 69 31 64 3 -3 0 -22 -7 -41z m2199 37 c-10 -2 -26 -2 -35 0 -10 3
-2 5 17 5 19 0 27 -2 18 -5z m2202 -99 c17 -49 7 -53 -13 -4 -8 22 -12 40 -7
40 5 0 14 -16 20 -36z m-3999 -21 c-12 -20 -14 -14 -5 12 4 9 9 14 11 11 3 -2
0 -13 -6 -23z m2299 14 c0 -2 -12 -14 -27 -28 l-28 -24 24 28 c23 25 31 32 31
24z m-2337 -44 c-7 -2 -19 -2 -25 0 -7 3 -2 5 12 5 14 0 19 -2 13 -5z m8 -40
c-12 -20 -14 -14 -5 12 4 9 9 14 11 11 3 -2 0 -13 -6 -23z m126 -53 c-1 -11
-5 -20 -9 -20 -10 0 -10 4 -2 24 8 22 13 20 11 -4z m2016 -7 c-18 -2 -48 -2
-65 0 -18 2 -4 4 32 4 36 0 50 -2 33 -4z m1954 -58 c6 -19 8 -35 4 -35 -4 0
-12 16 -18 35 -6 19 -8 35 -4 35 4 0 12 -16 18 -35z m-767 -4 c-23 -13 -861
-273 -866 -268 -2 2 33 15 79 29 45 14 217 69 382 121 425 135 444 140 405
118z m-1117 -38 c-13 -2 -33 -2 -45 0 -13 2 -3 4 22 4 25 0 35 -2 23 -4z
m-2156 -95 c-3 -8 -6 -5 -6 6 -1 11 2 17 5 13 3 -3 4 -12 1 -19z m33 -7 c-13
-26 -30 -20 175 -61 88 -17 162 -34 164 -36 10 -10 -45 -1 -192 30 -142 30
-159 31 -167 17 -8 -13 -9 -13 -7 4 5 26 29 76 34 71 3 -2 0 -14 -7 -25z
m-590 -16 c0 -14 -4 -25 -9 -25 -4 0 -6 11 -3 25 2 14 6 25 8 25 2 0 4 -11 4
-25z m4649 -72 c1 -13 -3 -23 -8 -23 -10 0 -21 70 -13 85 7 11 19 -28 21 -62z
m-4112 15 c-3 -8 -6 -5 -6 6 -1 11 2 17 5 13 3 -3 4 -12 1 -19z m430 -34 c-3
-3 -12 -4 -19 -1 -8 3 -5 6 6 6 11 1 17 -2 13 -5z m-995 -113 c-2 -23 -8 -41
-13 -41 -11 0 -11 16 -3 59 9 44 20 31 16 -18z m276 42 c-32 -2 -84 -2 -115 0
-32 2 -6 3 57 3 63 0 89 -1 58 -3z m121 -162 c-24 -325 34 -635 179 -960 27
-61 46 -109 42 -106 -4 2 -13 18 -20 35 l-12 30 -167 2 -166 2 162 3 161 3
-21 40 -22 40 -152 0 c-90 0 -154 4 -158 10 -4 7 48 10 149 10 l154 0 -15 40
-16 40 -156 2 -156 2 153 3 c153 4 153 4 146 26 -22 73 -8 67 -176 69 l-153 2
153 3 c135 3 153 5 148 19 -3 9 -9 27 -12 40 l-6 24 -149 0 c-82 0 -149 3
-149 8 0 4 63 7 141 7 77 0 143 3 145 7 3 4 2 23 -2 43 l-6 35 -152 2 -151 2
148 3 c159 4 153 1 141 62 l-6 31 -147 2 -146 2 145 3 145 4 -3 39 -4 40 -144
0 c-79 0 -144 3 -144 8 0 4 63 6 140 4 l140 -3 0 45 0 46 -147 2 -148 2 148 3
148 4 -3 42 -3 42 -143 0 c-78 0 -142 3 -142 8 0 4 65 7 145 7 l145 0 0 40 0
40 -145 0 c-90 0 -145 4 -145 10 0 6 55 10 145 10 l145 0 0 40 0 40 -147 2
-148 2 150 6 149 5 9 43 c15 78 17 38 6 -117z m1048 143 c-3 -3 -12 -4 -19 -1
-8 3 -5 6 6 6 11 1 17 -2 13 -5z m50 -10 c-3 -3 -12 -4 -19 -1 -8 3 -5 6 6 6
11 1 17 -2 13 -5z m46 -11 c-7 -2 -19 -2 -25 0 -7 3 -2 5 12 5 14 0 19 -2 13
-5z m50 -10 c-7 -2 -19 -2 -25 0 -7 3 -2 5 12 5 14 0 19 -2 13 -5z m1460 -10
c-7 -2 -19 -2 -25 0 -7 3 -2 5 12 5 14 0 19 -2 13 -5z m-50 -10 c-7 -2 -19 -2
-25 0 -7 3 -2 5 12 5 14 0 19 -2 13 -5z m1700 -30 c5 -42 1 -56 -14 -48 -12 8
-12 85 0 85 5 0 11 -17 14 -37z m-2243 -79 c0 -14 -4 -23 -10 -19 -5 3 -10 15
-10 26 0 10 5 19 10 19 6 0 10 -12 10 -26z m-892 9 c-10 -2 -28 -2 -40 0 -13
2 -5 4 17 4 22 1 32 -1 23 -4z m1565 0 c-13 -2 -33 -2 -45 0 -13 2 -3 4 22 4
25 0 35 -2 23 -4z m-1470 -10 c-7 -2 -21 -2 -30 0 -10 3 -4 5 12 5 17 0 24 -2
18 -5z m840 -24 l-18 -30 28 -21 c32 -23 35 -43 8 -58 -14 -7 -27 -6 -47 5
l-29 15 32 -3 c17 -1 29 -6 25 -11 -3 -5 0 -6 6 -2 13 8 2 36 -25 68 -13 15
-13 20 4 42 26 36 38 32 16 -5z m535 24 c-10 -2 -28 -2 -40 0 -13 2 -5 4 17 4
22 1 32 -1 23 -4z m-3048 -78 c0 -25 -4 -45 -10 -45 -5 0 -10 20 -10 45 0 25
5 45 10 45 6 0 10 -20 10 -45z m2451 14 c-5 -13 -10 -19 -10 -12 -1 15 10 45
15 40 3 -2 0 -15 -5 -28z m2269 -79 c0 -22 -4 -40 -10 -40 -5 0 -10 18 -10 40
0 22 5 40 10 40 6 0 10 -18 10 -40z m-3073 -86 c-3 -3 -12 -4 -19 -1 -8 3 -5
6 6 6 11 1 17 -2 13 -5z m1466 -1 c-7 -2 -21 -2 -30 0 -10 3 -4 5 12 5 17 0
24 -2 18 -5z m-1560 -10 c-7 -2 -19 -2 -25 0 -7 3 -2 5 12 5 14 0 19 -2 13 -5z
m-105 -10 c-10 -2 -26 -2 -35 0 -10 3 -2 5 17 5 19 0 27 -2 18 -5z m-1439 -65
c1 -16 -3 -28 -9 -28 -5 0 -10 21 -9 48 0 35 3 42 9 27 5 -11 9 -32 9 -47z
m1349 55 c-10 -2 -28 -2 -40 0 -13 2 -5 4 17 4 22 1 32 -1 23 -4z m-128 -13
c-30 -5 -73 -8 -95 -7 -38 0 -38 0 10 7 28 4 70 7 95 7 44 0 44 0 -10 -7z
m3476 -106 c-9 -36 -26 -29 -20 9 3 17 8 39 12 47 8 22 15 -26 8 -56z m-1609
30 c-3 -3 -12 -4 -19 -1 -8 3 -5 6 6 6 11 1 17 -2 13 -5z m46 -11 c-7 -2 -19
-2 -25 0 -7 3 -2 5 12 5 14 0 19 -2 13 -5z m-1646 -19 c-3 -3 -12 -4 -19 -1
-8 3 -5 6 6 6 11 1 17 -2 13 -5z m-50 -10 c-3 -3 -12 -4 -19 -1 -8 3 -5 6 6 6
11 1 17 -2 13 -5z m-50 -10 c-3 -3 -12 -4 -19 -1 -8 3 -5 6 6 6 11 1 17 -2 13
-5z m-62 -14 c-16 -4 -39 -8 -50 -8 -16 0 -15 2 5 8 14 4 36 8 50 8 22 0 22
-1 -5 -8z m-1302 -97 c6 -34 3 -52 -7 -42 -10 10 -17 79 -8 79 5 0 12 -17 15
-37z m1512 7 c-11 -5 -27 -9 -35 -9 -9 0 -8 4 5 9 11 5 27 9 35 9 9 0 8 -4 -5
-9z m3130 -67 c-7 -40 -25 -69 -25 -41 0 33 13 78 22 78 6 0 7 -15 3 -37z
m-1675 2 c14 -8 21 -14 15 -14 -5 0 -21 6 -35 14 -14 8 -20 14 -15 14 6 0 21
-6 35 -14z m-1310 -15 c-8 -5 -19 -10 -25 -10 -5 0 -3 5 5 10 8 5 20 10 25 10
6 0 3 -5 -5 -10z m-60 -25 c-14 -8 -29 -14 -35 -14 -5 0 1 6 15 14 14 8 30 14
35 14 6 0 -1 -6 -15 -14z m130 -69 c0 -2 -127 -75 -282 -162 -327 -182 -306
-170 -293 -156 8 9 564 322 573 322 1 0 2 -2 2 -4z m-1675 -63 c4 -19 3 -33
-3 -33 -11 0 -33 76 -24 85 8 8 18 -13 27 -52z m2398 50 c-7 -2 -21 -2 -30 0
-10 3 -4 5 12 5 17 0 24 -2 18 -5z m-156 -9 c-3 -3 -12 -4 -19 -1 -8 3 -5 6 6
6 11 1 17 -2 13 -5z m81 -1 c-10 -2 -26 -2 -35 0 -10 3 -2 5 17 5 19 0 27 -2
18 -5z m-509 -26 c-2 -1 -13 -9 -24 -17 -19 -14 -19 -14 -6 3 7 9 18 17 24 17
6 0 8 -1 6 -3z m2731 -31 c0 -23 -22 -76 -31 -76 -12 0 -11 5 3 51 11 38 28
53 28 25z m-2780 0 c0 -4 -272 -197 -375 -266 -119 -79 -11 3 171 131 204 142
204 142 204 135z m-1704 -171 c16 -40 17 -45 5 -45 -8 0 -31 52 -31 71 0 19
12 7 26 -26z m2679 -125 c55 -55 97 -100 95 -100 -3 0 -50 45 -105 100 -55 55
-97 100 -95 100 3 0 50 -45 105 -100z m1735 90 c0 -15 -30 -73 -35 -68 -7 7
18 78 27 78 4 0 8 -5 8 -10z m-2047 -17 c-7 -2 -19 -2 -25 0 -7 3 -2 5 12 5
14 0 19 -2 13 -5z m-39 -84 c-3 -5 -10 -7 -15 -3 -5 3 -7 10 -3 15 3 5 10 7
15 3 5 -3 7 -10 3 -15z m197 -6 c13 -16 12 -17 -3 -4 -10 7 -18 15 -18 17 0 8
8 3 21 -13z m-1953 -103 c90 -135 208 -276 319 -381 48 -45 74 -73 57 -61 -17
11 -37 28 -44 37 -10 12 -47 15 -219 17 l-206 3 199 2 198 3 -47 42 -46 41
-147 -1 c-144 0 -145 0 -62 9 47 5 109 8 138 5 28 -2 52 -2 52 1 0 3 -14 23
-31 44 l-31 39 -136 2 -137 2 128 3 c70 2 127 6 127 9 0 3 -14 23 -32 45 -30
38 -33 39 -97 41 l-66 2 63 3 63 4 -35 49 c-30 41 -98 165 -83 150 2 -3 36
-52 75 -110z m-105 93 c-13 -2 -33 -2 -45 0 -13 2 -3 4 22 4 25 0 35 -2 23 -4z
m1844 -65 c-3 -8 -6 -5 -6 6 -1 11 2 17 5 13 3 -3 4 -12 1 -19z m284 -15 c13
-16 12 -17 -3 -4 -10 7 -18 15 -18 17 0 8 8 3 21 -13z m1715 -38 c-11 -19 -22
-32 -27 -29 -4 2 1 20 13 40 26 44 38 35 14 -11z m-116 25 c0 -6 -46 -9 -122
-8 -105 1 -113 2 -58 8 107 11 180 11 180 0z m-262 -7 c-10 -2 -28 -2 -40 0
-13 2 -5 4 17 4 22 1 32 -1 23 -4z m-1267 -70 c13 -16 12 -17 -3 -4 -10 7 -18
15 -18 17 0 8 8 3 21 -13z m-134 -29 c-3 -3 -12 -4 -19 -1 -8 3 -5 6 6 6 11 1
17 -2 13 -5z m106 -21 c-7 -2 -21 -2 -30 0 -10 3 -4 5 12 5 17 0 24 -2 18 -5z
m88 -25 l22 -33 -27 27 c-24 25 -32 38 -22 38 3 0 15 -15 27 -32z m117 5 c-10
-2 -28 -2 -40 0 -13 2 -5 4 17 4 22 1 32 -1 23 -4z m1382 -29 c0 -13 -48 -75
-53 -67 -7 11 31 73 44 73 5 0 9 -2 9 -6z m-1440 -54 c17 -22 29 -40 27 -40
-3 0 -20 18 -37 40 -17 22 -29 40 -27 40 3 0 20 -18 37 -40z m-1739 -107 c13
-16 12 -17 -3 -4 -17 13 -22 21 -14 21 2 0 10 -8 17 -17z m-723 -28 c-3 -3 -9
2 -12 12 -6 14 -5 15 5 6 7 -7 10 -15 7 -18z m2239 -52 c-2 -16 -4 -3 -4 27 0
30 2 43 4 28 2 -16 2 -40 0 -55z m1509 19 c-35 -36 -43 -22 -9 18 16 20 29 28
31 20 3 -7 -7 -24 -22 -38z m-2975 21 c13 -16 12 -17 -3 -4 -17 13 -22 21 -14
21 2 0 10 -8 17 -17z m439 13 c0 -2 -8 -10 -17 -17 -16 -13 -17 -12 -4 4 13
16 21 21 21 13z m-253 -134 c39 -23 74 -42 76 -42 3 0 8 16 12 36 3 20 9 34
11 31 3 -3 1 -21 -4 -41 -6 -20 -7 -36 -4 -36 4 1 27 28 52 61 25 33 54 68 65
77 23 20 19 14 -48 -74 -26 -33 -47 -64 -47 -68 0 -11 108 -58 119 -52 5 3 12
33 16 67 7 57 23 126 24 104 0 -5 -5 -49 -13 -97 -12 -84 -12 -88 6 -94 11 -3
21 -4 22 -2 2 1 31 47 66 100 35 54 65 96 67 94 2 -2 -24 -47 -57 -101 -34
-53 -58 -101 -53 -105 11 -10 83 -33 89 -28 2 3 8 49 13 104 l10 99 -3 -106
-3 -107 33 -10 32 -9 48 103 c27 57 52 103 55 104 3 0 4 -12 2 -27 -2 -16 0
-70 4 -120 10 -110 18 -107 -132 -68 -186 49 -371 132 -527 236 -48 33 -88 62
-88 65 0 3 19 -8 43 -24 23 -16 74 -48 114 -70z m-171 -50 c221 -147 465 -250
725 -307 l64 -13 -57 -1 c-32 -1 -58 3 -58 7 0 5 -35 17 -77 27 -43 10 -102
26 -132 36 -48 17 -92 19 -365 21 l-311 3 283 2 c155 2 282 7 282 11 0 4 -35
23 -78 42 l-77 35 -265 2 c-146 2 -269 4 -275 5 -5 1 105 5 245 8 l255 5 -67
38 -66 37 -236 0 c-156 0 -236 4 -236 10 0 7 73 10 220 8 121 -2 220 -1 220 2
0 3 -25 23 -55 45 -30 22 -57 46 -60 54 -5 12 -2 12 12 -1 10 -9 59 -43 109
-76z m-661 48 c16 -16 26 -33 22 -36 -8 -9 -23 2 -47 36 -28 39 -12 39 25 0z
m428 13 c-56 -2 -151 -2 -210 0 -59 1 -13 3 102 3 116 0 164 -2 108 -3z m3061
-65 c-16 -18 -30 -35 -31 -37 -2 -2 -6 -2 -9 2 -10 10 36 67 54 67 12 0 9 -8
-14 -32z m-1556 -9 c-3 -8 -7 -3 -11 10 -4 17 -3 21 5 13 5 -5 8 -16 6 -23z
m-348 -9 c0 -16 -4 -30 -8 -30 -5 0 -7 14 -4 30 2 17 6 30 8 30 2 0 4 -13 4
-30z m364 -26 c9 -24 7 -27 -9 -10 -17 17 -19 26 -6 26 5 0 12 -7 15 -16z
m-1794 -59 c35 -37 14 -44 -23 -7 -22 22 -27 32 -16 32 9 0 26 -11 39 -25z
m1767 -7 c-3 -7 -5 -2 -5 12 0 14 2 19 5 13 2 -7 2 -19 0 -25z m57 -18 c5 -17
4 -20 -2 -10 -5 8 -13 26 -16 40 -5 17 -4 20 2 10 5 -8 13 -26 16 -40z m1376
2 c0 -14 -59 -66 -67 -59 -3 4 6 21 22 37 28 30 45 38 45 22z m-1444 -68 c-4
-10 -21 -13 -63 -12 l-58 2 58 3 c54 4 57 5 58 31 1 18 3 21 6 9 3 -10 2 -25
-1 -33z m-433 9 c-7 -2 -19 -2 -25 0 -7 3 -2 5 12 5 14 0 19 -2 13 -5z m-1149
-72 c11 -12 15 -21 9 -21 -14 0 -63 39 -63 51 0 13 30 -4 54 -30z m2854 -13
c-6 -18 -57 -53 -65 -44 -4 4 6 18 22 31 33 27 49 32 43 13z m-1871 -52 c3 -3
-154 -6 -350 -6 -196 0 -358 3 -360 8 -6 9 701 8 710 -2z m176 -3 c-7 -2 -19
-2 -25 0 -7 3 -2 5 12 5 14 0 19 -2 13 -5z m335 -20 c-10 -2 -28 -2 -40 0 -13
2 -5 4 17 4 22 1 32 -1 23 -4z m-1331 -24 c19 -12 31 -24 28 -27 -7 -8 -75 28
-75 40 0 12 10 10 47 -13z m2517 -18 c5 -7 -55 -51 -70 -51 -14 0 1 21 29 39
38 24 34 23 41 12z m-1741 -28 c-89 -2 -237 -2 -330 0 -92 1 -19 3 162 3 182
0 257 -2 168 -3z m194 1 c-3 -3 -12 -4 -19 -1 -8 3 -5 6 6 6 11 1 17 -2 13 -5z
m1281 1 c-7 -7 -800 -6 -807 0 -2 3 179 5 404 5 225 0 406 -2 403 -5z m-2063
-62 c29 -14 47 -33 30 -33 -12 0 -75 35 -75 42 0 11 4 10 45 -9z m2135 -23 c0
-10 -52 -40 -70 -40 -21 0 -9 17 23 33 38 19 47 20 47 7z m-1362 -17 c-82 -2
-214 -2 -295 0 -82 1 -15 3 147 3 162 0 229 -2 148 -3z m345 0 c-7 -2 -21 -2
-30 0 -10 3 -4 5 12 5 17 0 24 -2 18 -5z m534 0 c-98 -2 -256 -2 -350 0 -95 1
-14 3 178 2 193 0 270 -1 172 -2z m-1450 -55 c28 -10 46 -28 28 -28 -12 0 -75
29 -75 34 0 9 10 7 47 -6z m1743 -14 c0 -6 -65 -34 -80 -34 -22 0 -8 18 23 28
38 12 57 14 57 6z m-1539 -56 c22 -6 39 -15 39 -20 0 -11 -5 -10 -51 4 -22 6
-39 15 -39 20 0 11 5 10 51 -4z m1324 -17 c-18 -15 -74 -30 -80 -21 -3 5 9 14
27 19 44 12 65 13 53 2z m-1088 -41 c8 0 12 -4 9 -9 -3 -5 -22 -5 -42 -1 -46
11 -60 25 -15 16 18 -3 40 -6 48 -6z m878 -9 c-15 -13 -85 -23 -85 -12 0 9 26
16 75 20 11 0 15 -3 10 -8z m-220 -31 c-3 -5 -23 -10 -43 -9 -33 1 -34 2 -12
9 36 12 62 12 55 0z m220 -730 c0 -22 -3 -40 -7 -40 -5 0 -8 18 -8 40 0 22 3
40 8 40 4 0 7 -18 7 -40z m108 18 c9 -31 2 -33 -11 -3 -6 14 -8 25 -3 25 5 0
11 -10 14 -22z m157 -18 c0 -22 -3 -40 -7 -40 -5 0 -8 18 -8 40 0 22 3 40 8
40 4 0 7 -18 7 -40z m40 30 c0 -5 -2 -10 -4 -10 -3 0 -8 5 -11 10 -3 6 -1 10
4 10 6 0 11 -4 11 -10z m-10 -30 c0 -5 -5 -10 -11 -10 -5 0 -7 5 -4 10 3 6 8
10 11 10 2 0 4 -4 4 -10z m-433 -32 c-3 -8 -6 -5 -6 6 -1 11 2 17 5 13 3 -3 4
-12 1 -19z m273 8 c0 -3 -4 -8 -10 -11 -5 -3 -10 -1 -10 4 0 6 5 11 10 11 6 0
10 -2 10 -4z m175 -16 c-3 -5 -14 -10 -23 -10 -15 0 -15 2 -2 10 20 13 33 13
25 0z m-1458 -86 c-3 -3 -12 -4 -19 -1 -8 3 -5 6 6 6 11 1 17 -2 13 -5z m1436
-1 c-106 -2 -280 -2 -385 0 -106 1 -20 2 192 2 212 0 298 -1 193 -2z m-943
-319 c0 -12 -4 -12 -20 -2 -17 11 -22 10 -30 -2 -5 -8 -10 -25 -10 -38 0 -13
-4 -21 -9 -18 -5 4 -12 0 -15 -6 -4 -9 -5 -8 -5 2 3 41 -2 60 -16 60 -14 0
-20 12 -11 21 2 2 29 2 60 1 40 -3 56 -8 56 -18z m914 -63 c17 -39 33 -71 36
-71 4 0 18 28 31 61 26 67 61 101 82 80 9 -10 8 -14 -5 -22 -14 -8 -18 -23
-18 -74 0 -35 5 -67 10 -70 23 -14 9 -35 -23 -35 -41 0 -52 9 -31 24 11 8 14
24 12 51 l-3 40 -28 -57 c-29 -60 -44 -71 -53 -40 -13 39 -37 92 -43 92 -4 0
-8 -20 -9 -45 -1 -34 2 -45 13 -45 8 0 15 -4 15 -10 0 -5 -16 -10 -36 -10 -28
0 -34 3 -26 13 5 6 12 46 15 87 4 60 2 77 -11 86 -22 16 -6 35 21 25 15 -5 31
-31 51 -80z m-1778 54 c1 -34 -7 -37 -32 -14 -24 22 -58 20 -49 -3 3 -7 21
-24 40 -37 42 -28 54 -64 34 -100 -13 -23 -22 -26 -64 -26 -44 0 -50 3 -53 23
-2 13 -1 31 3 39 5 13 11 10 33 -16 19 -23 32 -30 45 -26 27 11 20 28 -28 72
-71 64 -59 116 25 111 37 -2 45 -7 46 -23z m410 -20 c6 -22 16 -53 22 -68 7
-16 12 -34 12 -41 0 -8 7 -19 15 -26 26 -21 17 -30 -30 -30 -25 0 -45 5 -45
10 0 6 6 10 14 10 12 0 12 6 3 35 -8 27 -16 35 -33 35 -24 0 -44 -25 -44 -54
0 -9 7 -16 15 -16 8 0 15 -4 15 -10 0 -11 -83 -14 -93 -4 -3 4 4 15 16 24 12
10 28 35 36 56 35 97 51 125 68 122 11 -2 22 -18 29 -43z m950 -1 c6 -21 16
-52 22 -67 7 -16 12 -34 12 -41 0 -8 7 -19 15 -26 25 -21 17 -30 -25 -30 -36
0 -55 13 -30 22 7 2 7 14 -1 36 -9 26 -16 32 -39 32 -24 0 -30 -5 -35 -31 -5
-23 -3 -34 12 -44 17 -13 16 -14 -11 -15 -21 0 -27 4 -22 15 6 17 4 18 -19 9
-13 -5 -14 -8 -3 -15 10 -7 9 -9 -4 -9 -23 0 -23 14 1 31 10 8 31 46 46 84 42
108 61 120 81 49z m978 21 c4 -14 6 -27 6 -30 0 -3 6 -18 15 -35 8 -16 15 -38
15 -50 0 -11 9 -28 20 -37 11 -10 20 -21 20 -25 0 -12 -88 -10 -95 2 -3 6 1
10 9 10 19 0 19 -1 5 39 -14 41 -50 43 -68 4 -11 -23 -10 -29 3 -39 26 -18 19
-24 -29 -24 -45 0 -58 12 -31 27 8 5 29 42 47 83 17 41 36 81 41 88 17 20 35
14 42 -13z m-1437 -16 c1 -19 1 -20 -4 -4 -3 11 -10 24 -17 28 -7 6 -6 7 4 4
8 -2 16 -14 17 -28z m-2019 -56 c-98 -2 -258 -2 -355 0 -98 1 -18 2 177 2 195
0 275 -1 178 -2z m4875 0 c-123 -2 -323 -2 -445 0 -123 1 -23 2 222 2 245 0
345 -1 223 -2z m-2980 -100 c-7 -2 -19 -2 -25 0 -7 3 -2 5 12 5 14 0 19 -2 13
-5z"/>
<path d="M6150 7833 c-41 -54 -110 -141 -152 -195 -43 -54 -78 -100 -78 -103
0 -4 19 -5 43 -3 l42 3 12 60 12 60 -6 -63 -5 -63 53 3 c67 4 65 1 121 222 23
93 43 165 45 159 3 -8 -33 -158 -74 -308 -3 -13 12 -4 47 30 75 72 170 183
170 199 0 13 -98 78 -137 90 -15 5 -34 -15 -93 -91z"/>
<path d="M6387 7803 c-13 -15 -101 -241 -109 -282 -2 -8 8 -17 22 -21 42 -11
132 75 180 171 l40 78 -49 35 c-56 41 -62 43 -84 19z"/>
<path d="M6241 7648 c-113 -120 -114 -123 -28 -130 l49 -3 43 120 c24 66 43
120 42 121 -1 1 -49 -48 -106 -108z"/>
<path d="M6497 7685 c-15 -31 -27 -58 -27 -61 0 -3 23 14 50 37 47 40 49 43
34 61 -10 10 -20 18 -23 18 -4 0 -19 -25 -34 -55z"/>
<path d="M6512 7636 c-44 -37 -71 -70 -88 -107 -14 -28 -23 -53 -22 -55 2 -1
26 -12 55 -23 l52 -20 67 106 67 107 -27 23 c-15 13 -30 23 -34 23 -4 0 -36
-25 -70 -54z"/>
<path d="M6582 7529 c-34 -56 -60 -104 -57 -107 4 -5 113 66 182 118 l22 17
-37 37 c-21 20 -40 36 -42 36 -3 0 -33 -46 -68 -101z"/>
<path d="M6377 7522 c-26 -27 -27 -42 -2 -42 6 0 19 16 28 35 20 42 10 45 -26
7z"/>
<path d="M6644 7479 c-49 -34 -91 -63 -92 -65 -2 -1 14 -12 36 -23 l41 -21 60
78 c90 115 84 119 -45 31z"/>
<path d="M6710 7459 c-25 -34 -51 -69 -58 -78 -11 -16 -7 -21 29 -45 36 -24
45 -26 69 -16 15 6 44 29 65 50 l37 38 -43 56 c-24 30 -46 55 -49 55 -3 0 -25
-27 -50 -60z"/>
<path d="M6835 7380 c-21 -23 -9 -26 18 -6 10 8 14 17 9 20 -5 3 -17 -3 -27
-14z"/>
<path d="M6813 7337 c-28 -18 -55 -35 -58 -39 -7 -6 51 -63 82 -81 14 -9 90
48 92 68 1 13 -48 85 -57 84 -4 0 -30 -15 -59 -32z"/>
<path d="M5490 7296 c0 -2 7 -7 16 -10 8 -3 12 -2 9 4 -6 10 -25 14 -25 6z"/>
<path d="M5540 7266 c0 -2 8 -10 18 -17 15 -13 16 -12 3 4 -13 16 -21 21 -21
13z"/>
<path d="M6895 7235 l-40 -34 22 -22 c22 -22 22 -22 65 -4 24 11 44 20 46 21
5 3 -42 74 -48 74 -3 -1 -23 -16 -45 -35z"/>
<path d="M5770 6795 c0 -2 19 -22 43 -44 28 -27 51 -41 70 -41 30 0 32 8 15
57 -12 32 -13 33 -70 33 -32 0 -58 -2 -58 -5z"/>
<path d="M5872 6693 c34 -72 75 -98 63 -40 -10 44 -13 47 -41 47 -14 0 -24 -3
-22 -7z"/>
<path d="M4846 6584 c-11 -28 -6 -39 9 -20 8 11 15 23 15 28 0 14 -18 9 -24
-8z"/>
<path d="M5937 6580 c6 -22 23 -38 23 -21 0 17 -12 41 -20 41 -5 0 -6 -9 -3
-20z"/>
<path d="M4885 6367 c-27 -21 -51 -42 -52 -46 -1 -3 24 -25 55 -49 36 -27 58
-38 59 -30 2 7 0 47 -5 89 l-7 76 -50 -40z"/>
<path d="M5850 6319 c0 -64 3 -79 13 -72 6 5 31 24 54 42 l43 33 -50 39 c-27
21 -52 39 -55 39 -3 0 -5 -37 -5 -81z"/>
<path d="M4850 6061 c0 -12 5 -21 10 -21 6 0 10 6 10 14 0 8 -4 18 -10 21 -5
3 -10 -3 -10 -14z"/>
<path d="M5937 6066 c-4 -10 -5 -21 -2 -24 9 -9 17 6 13 25 -3 17 -4 17 -11
-1z"/>
<path d="M4866 6003 c11 -45 23 -63 44 -63 26 0 25 8 -5 53 -30 44 -48 48 -39
10z"/>
<path d="M5895 5993 c-30 -45 -31 -53 -5 -53 19 0 27 11 44 68 11 35 -10 26
-39 -15z"/>
<path d="M3630 5925 c0 -8 4 -15 10 -15 5 0 7 7 4 15 -4 8 -8 15 -10 15 -2 0
-4 -7 -4 -15z"/>
<path d="M5805 5889 l-40 -39 58 0 c31 0 57 2 57 4 0 2 7 20 15 40 l15 36 -32
-1 c-24 -1 -45 -13 -73 -40z"/>
<path d="M3650 5861 c0 -22 23 -91 30 -91 16 0 17 14 3 48 -17 42 -33 63 -33
43z"/>
<path d="M7123 5829 c-19 -48 -19 -52 -5 -57 11 -3 38 85 29 95 -3 3 -14 -14
-24 -38z"/>
<path d="M5710 5816 c-19 -12 -51 -28 -70 -36 -65 -25 -54 -30 66 -30 l120 0
22 39 c12 21 22 41 22 45 0 3 -28 6 -62 5 -48 0 -72 -6 -98 -23z"/>
<path d="M3686 5761 c-3 -5 0 -26 8 -47 9 -27 20 -40 34 -42 28 -4 28 9 0 58
-23 40 -32 47 -42 31z"/>
<path d="M7072 5728 c-17 -32 -19 -43 -10 -50 7 -4 16 -8 20 -8 12 0 39 72 34
87 -9 22 -20 15 -44 -29z"/>
<path d="M3736 5657 c-17 -12 -16 -17 14 -85 34 -75 35 -76 84 -40 17 14 16
17 -20 65 -32 44 -41 50 -57 41 -10 -5 -21 -7 -24 -5 -2 3 5 8 16 12 12 3 21
11 21 16 0 13 -13 11 -34 -4z"/>
<path d="M7044 5656 c23 -18 36 -20 36 -6 0 6 -4 10 -9 10 -5 0 -18 3 -28 6
-16 5 -16 4 1 -10z"/>
<path d="M6987 5599 c-40 -54 -40 -54 6 -80 10 -6 16 -13 13 -16 -2 -3 -18 4
-34 16 -29 20 -30 20 -47 1 -16 -18 -15 -19 27 -38 l43 -19 40 78 c38 77 39
79 20 94 -11 8 -22 15 -25 15 -3 0 -22 -23 -43 -51z"/>
<path d="M3823 5512 c-47 -38 -32 -58 25 -35 47 20 49 24 25 46 -17 14 -21 13
-50 -11z"/>
<path d="M3858 5468 l-47 -20 22 -39 c12 -21 24 -39 27 -39 3 1 24 18 47 39
l42 38 -22 20 c-22 20 -22 20 -69 1z"/>
<path d="M6875 5470 c-17 -19 -17 -21 1 -41 10 -12 30 -29 44 -39 l26 -18 22
39 23 39 -46 20 c-56 24 -48 24 -70 0z"/>
<path d="M6796 5395 l-50 -43 46 -28 c25 -16 54 -35 64 -42 18 -12 18 -13 -1
-7 -11 4 -25 8 -32 9 -7 1 -20 9 -30 18 -44 38 -60 40 -105 11 -24 -15 -45
-28 -46 -29 -3 -2 82 -114 116 -154 4 -5 52 48 80 89 14 21 14 24 -1 33 -9 5
-17 14 -17 20 0 6 9 3 20 -7 11 -10 21 -16 23 -14 2 2 19 27 39 55 l36 52 -31
29 c-60 55 -58 55 -111 8z"/>
<path d="M5559 5413 c-13 -16 -12 -17 4 -4 16 13 21 21 13 21 -2 0 -10 -8 -17
-17z"/>
<path d="M6588 5254 c-16 -8 -28 -18 -28 -22 1 -4 39 -33 86 -65 47 -33 83
-61 80 -64 -2 -3 -47 25 -99 61 -51 36 -98 62 -103 57 -5 -4 -31 -16 -59 -26
-27 -10 -53 -21 -57 -24 -18 -16 42 -106 108 -162 l69 -58 28 28 28 28 -61 97
c-34 54 -60 100 -57 102 2 2 32 -41 66 -97 l63 -101 30 29 c16 15 39 40 49 55
l20 28 -58 75 c-32 41 -62 75 -68 75 -5 -1 -22 -8 -37 -16z"/>
<path d="M6368 5162 c-25 -5 -22 -13 18 -45 38 -32 42 -27 16 18 -11 20 -23
30 -34 27z"/>
<path d="M6288 5140 c-14 -4 -54 -11 -87 -15 -34 -4 -61 -9 -61 -12 0 -7 203
-224 206 -220 2 2 -15 52 -37 111 -22 60 -38 111 -35 113 2 2 25 -55 51 -126
27 -72 58 -140 70 -151 l22 -20 49 37 c27 20 50 37 52 39 2 1 -15 37 -36 80
-30 58 -55 92 -95 127 -31 26 -59 47 -64 46 -4 0 -20 -4 -35 -9z"/>
<path d="M6470 5025 c0 -5 49 -106 55 -113 4 -4 45 21 45 28 0 3 -23 24 -50
48 -28 24 -50 40 -50 37z"/>
<path d="M5915 4700 c4 -58 9 -107 11 -109 1 -1 25 4 53 14 l50 16 -51 82
c-28 45 -56 87 -61 92 -5 6 -6 -32 -2 -95z"/>
<path d="M4514 7904 c-27 -14 -65 -38 -84 -52 -19 -15 -46 -33 -60 -40 -14 -7
-40 -25 -59 -41 l-33 -27 26 -52 c15 -29 24 -52 21 -52 -2 0 -16 23 -31 51
l-26 52 -20 -21 -20 -20 42 -38 c24 -22 48 -39 54 -39 6 0 16 -8 21 -17 6 -10
37 -40 69 -67 49 -41 62 -48 84 -42 19 6 26 14 24 27 -2 17 -2 18 8 2 9 -14
20 -16 58 -11 85 11 85 11 -29 130 -57 60 -106 108 -107 107 -2 -2 6 -28 17
-60 12 -31 20 -58 18 -61 -5 -4 -47 108 -47 124 0 6 -9 22 -20 36 -13 16 -16
28 -10 32 5 3 10 1 10 -4 0 -6 48 -63 107 -126 72 -77 110 -111 115 -102 5 8
8 5 8 -9 0 -34 31 -54 83 -54 39 0 46 3 50 23 l4 22 2 -22 c1 -20 6 -23 47
-23 l45 0 -31 43 c-17 24 -43 57 -58 74 -15 17 -31 38 -37 46 -20 33 -180 236
-186 236 -3 1 -28 -11 -55 -25z m76 -83 c11 -46 19 -85 17 -88 -4 -3 -47 156
-47 173 0 20 11 -10 30 -85z m27 -123 c-3 -8 -6 -5 -6 6 -1 11 2 17 5 13 3 -3
4 -12 1 -19z m10 -40 c-3 -8 -6 -5 -6 6 -1 11 2 17 5 13 3 -3 4 -12 1 -19z
m10 -40 c-3 -8 -6 -5 -6 6 -1 11 2 17 5 13 3 -3 4 -12 1 -19z m140 -20 c-3 -7
-5 -2 -5 12 0 14 2 19 5 13 2 -7 2 -19 0 -25z m-263 -28 c5 -17 4 -20 -2 -10
-5 8 -13 26 -16 40 -5 17 -4 20 2 10 5 -8 13 -26 16 -40z"/>
<path d="M4180 7665 l-23 -25 47 -76 c26 -43 55 -88 63 -101 8 -13 13 -23 10
-23 -3 0 -31 42 -63 93 -32 50 -59 94 -61 97 -2 2 -22 -14 -44 -37 l-41 -40
97 -68 97 -67 69 27 c38 16 69 30 69 31 0 2 -12 27 -26 56 -18 35 -48 71 -90
106 -34 28 -67 52 -72 52 -4 0 -19 -11 -32 -25z"/>
<path d="M4380 7545 c0 -22 33 -65 50 -65 29 0 24 14 -15 44 -19 15 -35 24
-35 21z"/>
<path d="M4050 7532 c0 -5 26 -43 57 -83 31 -41 58 -76 60 -78 4 -6 73 32 73
40 0 7 -156 118 -177 126 -7 3 -13 1 -13 -5z"/>
<path d="M3991 7464 l-43 -56 33 -35 c19 -19 46 -44 61 -54 l28 -20 45 31 45
31 -30 42 c-17 23 -45 59 -63 79 l-32 37 -44 -55z"/>
<path d="M3936 7391 c-4 -6 3 -15 14 -21 23 -12 27 2 6 19 -9 8 -16 8 -20 2z"/>
<path d="M3891 7327 l-30 -45 47 -39 47 -40 49 44 c55 50 56 47 -36 98 l-47
26 -30 -44z"/>
<path d="M3832 7234 c-13 -20 -22 -37 -20 -39 8 -7 90 -46 92 -43 0 2 10 13
20 26 19 22 19 22 -20 57 -21 19 -41 34 -44 34 -3 1 -15 -15 -28 -35z"/>
<path d="M3794 7169 c-4 -7 6 -22 27 -40 31 -25 35 -26 52 -12 23 22 22 29
-10 41 -16 5 -35 13 -44 17 -10 3 -20 1 -25 -6z"/>
<path d="M5008 4636 l-38 -75 41 -11 c23 -6 43 -9 46 -6 3 3 2 42 -3 87 l-9
81 -37 -76z"/>
<path d="M4680 2725 c0 -8 5 -15 10 -15 6 0 10 7 10 15 0 8 -4 15 -10 15 -5 0
-10 -7 -10 -15z"/>
<path d="M5630 2730 c0 -11 7 -20 15 -20 17 0 18 2 9 24 -9 23 -24 20 -24 -4z"/>
<path d="M6610 2725 c0 -8 7 -15 15 -15 9 0 12 6 9 15 -4 8 -10 15 -15 15 -5
0 -9 -7 -9 -15z"/>
</g>
</svg>
